<svg fill="none" height="25" viewBox="0 0 24 25" width="24" xmlns="http://www.w3.org/2000/svg"><path clip-rule="evenodd" d="m6.25 7.99747c0 .33152-.1317.64946-.36612.88388s-.55236.36612-.88388.36612-.64946-.1317-.88388-.36612-.36612-.55236-.36612-.88388.1317-.64947.36612-.88389.55236-.36611.88388-.36611.64946.13169.88388.36611.36612.55237.36612.88389zm2.75-1c-.26522 0-.51957.10535-.70711.29289-.18753.18754-.29289.44189-.29289.70711 0 .26521.10536.51957.29289.7071.18754.18754.44189.2929.70711.2929h10c.2652 0 .5196-.10536.7071-.2929.1875-.18753.2929-.44189.2929-.7071 0-.26522-.1054-.51957-.2929-.70711s-.4419-.29289-.7071-.29289zm0 5.00003c-.26522 0-.51957.1053-.70711.2929-.18753.1875-.29289.4419-.29289.7071s.10536.5195.29289.7071c.18754.1875.44189.2929.70711.2929h10c.2652 0 .5196-.1054.7071-.2929.1875-.1876.2929-.4419.2929-.7071s-.1054-.5196-.2929-.7071c-.1875-.1876-.4419-.2929-.7071-.2929zm0 5c-.26522 0-.51957.1053-.70711.2929-.18753.1875-.29289.4419-.29289.7071s.10536.5195.29289.7071c.18754.1875.44189.2929.70711.2929h10c.2652 0 .5196-.1054.7071-.2929.1875-.1876.2929-.4419.2929-.7071s-.1054-.5196-.2929-.7071c-.1875-.1876-.4419-.2929-.7071-.2929zm-4-2.75c.33152 0 .64946-.1317.88388-.3661.23442-.2345.36612-.5524.36612-.8839 0-.3316-.1317-.6495-.36612-.8839s-.55236-.3661-.88388-.3661-.64946.1317-.88388.3661-.36612.5523-.36612.8839c0 .3315.1317.6494.36612.8839.23442.2344.55236.3661.88388.3661zm0 5c.33152 0 .64946-.1317.88388-.3661.23442-.2345.36612-.5524.36612-.8839 0-.3316-.1317-.6495-.36612-.8839s-.55236-.3661-.88388-.3661-.64946.1317-.88388.3661-.36612.5523-.36612.8839c0 .3315.1317.6494.36612.8839.23442.2344.55236.3661.88388.3661z" fill="#000" fill-rule="evenodd"/></svg>