<svg fill="none" height="24" viewBox="0 0 24 24" width="24" xmlns="http://www.w3.org/2000/svg"><path clip-rule="evenodd" d="m6 3c-.79565 0-1.55871.31607-2.12132.87868s-.87868 1.32567-.87868 2.12132v12c0 .7956.31607 1.5587.87868 2.1213s1.32567.8787 2.12132.8787h11c.2652 0 .5196-.1054.7071-.2929s.2929-.4419.2929-.7071-.1054-.5196-.2929-.7071-.4419-.2929-.7071-.2929h-11c-.26522 0-.51957-.1054-.70711-.2929-.18753-.1875-.29289-.4419-.29289-.7071v-12c0-.26522.10536-.51957.29289-.70711.18754-.18753.44189-.29289.70711-.29289h11c.2652 0 .5196-.10536.7071-.29289.1875-.18754.2929-.44189.2929-.70711s-.1054-.51957-.2929-.70711c-.1875-.18753-.4419-.29289-.7071-.29289zm9.707 4.293c-.0922-.09551-.2026-.17169-.3246-.2241s-.2532-.08-.386-.08115-.2645.02415-.3874.07443-.2345.12453-.3284.21842c-.0939.0939-.1681.20555-.2184.32845-.0503.12289-.0756.25457-.0745.38735.0012.13278.0288.264.0812.386.0524.12201.1286.23235.2241.3246l2.293 2.293h-8.586c-.26522 0-.51957.1054-.70711.2929-.18753.1875-.29289.4419-.29289.7071s.10536.5196.29289.7071c.18754.1875.44189.2929.70711.2929h8.586l-2.293 2.293c-.1822.1886-.283.4412-.2807.7034s.1075.513.2929.6984.4362.2906.6984.2929.5148-.0985.7034-.2807l4-4c.1875-.1875.2928-.4418.2928-.707s-.1053-.5195-.2928-.707z" fill="#000" fill-rule="evenodd"/></svg>