<svg fill="none" height="25" viewBox="0 0 24 25" width="24" xmlns="http://www.w3.org/2000/svg"><path clip-rule="evenodd" d="m8 9.99511c0-1.06086.42143-2.07828 1.17157-2.82843.75015-.75014 1.76753-1.17157 2.82843-1.17157s2.0783.42143 2.8284 1.17157c.7502.75015 1.1716 1.76757 1.1716 2.82843 0 1.06089-.4214 2.07829-1.1716 2.82839-.7501.7502-1.7675 1.1716-2.8284 1.1716s-2.07828-.4214-2.82843-1.1716c-.75014-.7501-1.17157-1.7675-1.17157-2.82839zm7.824 4.62299c.9515-.7871 1.637-1.8487 1.9628-3.0398.3259-1.1912.2763-2.45381-.142-3.61571-.4183-1.16189-1.1849-2.16641-2.1953-2.87649-1.0103-.71007-2.2151-1.0911-3.45-1.0911s-2.43972.38103-3.45004 1.0911c-1.01033.71008-1.77695 1.7146-2.19525 2.87649-.41831 1.1619-.46791 2.42451-.14204 3.61571.32586 1.1911 1.01132 2.2527 1.96283 3.0398-3.189 1.123-5.175 3.624-5.175 6.377 0 .2652.10536.5196.29289.7071.18754.1876.44189.2929.70711.2929s.51957-.1053.70711-.2929c.18753-.1875.29289-.4419.29289-.7071 0-2.27 2.355-5 7-5s7 2.73 7 5c0 .2652.1054.5196.2929.7071.1875.1876.4419.2929.7071.2929s.5196-.1053.7071-.2929c.1875-.1875.2929-.4419.2929-.7071 0-2.753-1.984-5.254-5.176-6.377z" fill="#000" fill-rule="evenodd"/></svg>